<?xml version="1.0" encoding="UTF-8" standalone="no"?>
<!-- Created with Inkscape (http://www.inkscape.org/) -->

<svg
   width="8.4887323in"
   height="8.4879684in"
   viewBox="0 0 215.6138 215.5944"
   version="1.1"
   id="svg5"
   inkscape:version="1.2.2 (732a01da63, 2022-12-09)"
   xml:space="preserve"
   sodipodi:docname="PhiloStone01.svg"
   xmlns:inkscape="http://www.inkscape.org/namespaces/inkscape"
   xmlns:sodipodi="http://sodipodi.sourceforge.net/DTD/sodipodi-0.dtd"
   xmlns="http://www.w3.org/2000/svg"
   xmlns:svg="http://www.w3.org/2000/svg"
   xmlns:rdf="http://www.w3.org/1999/02/22-rdf-syntax-ns#"
   xmlns:cc="http://creativecommons.org/ns#"
   xmlns:dc="http://purl.org/dc/elements/1.1/"><title
     id="title276">CrowningGlorySVG_PhiloStone01</title><sodipodi:namedview
     id="namedview7"
     pagecolor="#ffffff"
     bordercolor="#cccccc"
     borderopacity="1"
     inkscape:pageshadow="0"
     inkscape:pageopacity="0"
     inkscape:pagecheckerboard="true"
     inkscape:document-units="in"
     showgrid="false"
     units="in"
     inkscape:showpageshadow="0"
     inkscape:deskcolor="#d1d1d1"
     inkscape:zoom="0.70537368"
     inkscape:cx="569.91069"
     inkscape:cy="311.18258"
     inkscape:window-width="1920"
     inkscape:window-height="991"
     inkscape:window-x="-9"
     inkscape:window-y="-9"
     inkscape:window-maximized="1"
     inkscape:current-layer="layer1" /><defs
     id="defs2" /><g
     inkscape:label="CrowningGlorySVG_PhiloStone01"
     inkscape:groupmode="layer"
     id="layer1"
     transform="translate(0.12138285,-0.09941749)"><path
       style="fill:#000000;stroke-width:0.108001"
       d="M 102.79365,215.64231 C 92.48393,215.08349 83.809482,213.51283 74.551392,210.52859 52.633454,203.46356 33.443547,189.42126 19.963236,170.58343 5.1105026,149.82775 -1.8742391,124.42911 0.25311781,98.911422 0.99069769,90.064235 2.7713344,81.521595 5.6356919,73.088367 8.8539309,63.613279 13.520064,54.413761 19.297725,46.152957 26.506605,35.84583 35.695902,26.656289 45.98514,19.464853 61.165587,8.8548035 78.694149,2.3802623 97.115207,0.57889299 c 4.095153,-0.40044944 5.816003,-0.47835022 10.592473,-0.4794596 4.61579,-0.0012226 6.22883,0.06742333 10.20608,0.43370518 17.62719,1.62310963 34.80428,7.71285513 49.57245,17.57478543 10.32692,6.896143 19.37352,15.489115 26.79662,25.45301 5.27863,7.085395 9.68698,14.837508 13.09409,23.026012 3.57179,8.584283 6.16939,18.320752 7.29848,27.356434 0.68356,5.47022 0.81726,7.75024 0.81703,13.93212 0,5.60003 -0.0565,6.86776 -0.49575,11.1781 -2.07255,20.33529 -9.99662,39.77774 -22.7561,55.83422 -4.36999,5.49918 -9.53434,10.82874 -14.92627,15.40376 -5.08775,4.31691 -11.06106,8.45053 -17.11815,11.846 -2.01144,1.12756 -7.04207,3.63449 -9.11762,4.54361 -11.94061,5.23016 -24.51091,8.2004 -37.75481,8.92111 -1.81545,0.0988 -8.94562,0.12588 -10.53008,0.04 z m 10.04408,-4.14255 c 21.56348,-1.11858 41.62486,-8.56369 58.59053,-21.74386 3.53673,-2.74761 6.15302,-5.07542 9.72158,-8.64974 5.8924,-5.90186 10.50885,-11.73471 14.9499,-18.88905 0.54724,-0.88159 0.97511,-1.62277 0.9508,-1.64708 -0.0243,-0.0243 -40.24403,-0.032 -89.37716,-0.0172 l -89.332984,0.0271 1.110136,1.78202 c 11.253162,18.06398 27.220826,31.97261 46.483482,40.48941 11.564988,5.11334 24.539916,8.13925 37.237636,8.68427 1.95145,0.0838 7.77647,0.0621 9.66608,-0.0359 z M 62.659802,82.040824 C 87.28944,39.378898 107.46973,4.3987429 107.50488,4.3071356 c 0.0783,-0.2038609 -0.0691,-0.2061043 -3.73923,-0.05707 C 79.672704,5.2287438 57.498037,14.067178 39.295324,29.946787 35.651811,33.125297 30.252006,38.740026 27.131143,42.595121 9.9901977,63.768749 1.9090517,90.5679 4.4662804,117.75754 c 1.002837,10.6626 3.6244571,20.9524 7.8971916,30.99626 1.269795,2.98494 5.337571,11.05707 5.486298,10.8871 0.0159,-0.0181 20.180394,-34.9382 44.810032,-77.600125 z M 198.74914,157.67278 c 2.91402,-5.29225 5.7179,-11.78615 7.65138,-17.721 2.37641,-7.29432 3.97603,-15.15999 4.65639,-22.8962 0.44268,-5.03361 0.49234,-12.0677 0.11932,-16.90215 C 209.739,81.525859 203.49346,63.903237 192.97753,48.803443 181.00881,31.617623 164.27834,18.484807 144.84046,11.017585 135.59156,7.4645578 125.70983,5.2394058 115.75843,4.4689893 113.92919,4.327375 107.98611,4.0961379 107.9183,4.1639436 c -0.066,0.066067 89.61124,155.3900264 89.71547,155.3900264 0.0437,0 0.54566,-0.84655 1.11535,-1.88119 z M 67.90605,118.7566 c -0.0024,-28.078072 -0.03427,-37.502815 -0.125899,-37.341331 -0.06743,0.118799 -9.810346,16.997181 -21.650906,37.507511 -11.840562,20.51034 -21.5283,37.31394 -21.5283,37.34133 0,0.0274 9.744389,0.0498 21.654198,0.0498 h 21.654185 l -0.0037,-37.55734 z m 33.32158,37.33161 c -10.912029,-2.06517 -20.240375,-8.9343 -25.362968,-18.67659 -1.690446,-3.21495 -2.881552,-6.65595 -3.569482,-10.31195 l -0.264185,-1.40401 -0.0086,15.30914 -0.0086,15.30914 15.147128,-0.0111 15.147157,-0.0111 -1.08003,-0.20439 z m 42.16555,-14.97542 -0.009,-15.20113 -0.24924,1.29602 c -1.68529,8.76307 -6.20282,16.22562 -13.17923,21.77093 -4.36846,3.47233 -9.92305,5.99767 -15.55214,7.07065 l -1.29602,0.24702 15.14716,0.009 15.14712,0.009 -0.009,-15.20114 z m 4.20362,-59.800122 c -0.0499,-0.05642 -0.0907,16.79577 -0.0907,37.449332 v 37.55194 h 21.70327 21.70329 c 0,0 -43.24731,-74.923766 -43.31586,-75.001272 z M 112.24142,152.1632 c 2.8798,-0.47287 4.94642,-1.02969 7.24492,-1.95202 9.55348,-3.83351 16.68273,-12.0085 19.119,-21.9235 0.70051,-2.85089 0.84542,-4.15607 0.84542,-7.61406 0,-3.46061 -0.14568,-4.77067 -0.84667,-7.61407 -2.11584,-8.58246 -7.61855,-15.783883 -15.45227,-20.222429 -5.02839,-2.849062 -11.3516,-4.284454 -17.24476,-3.914618 -4.46779,0.280383 -8.247178,1.281171 -12.239505,3.241038 -3.346418,1.642787 -5.625706,3.286615 -8.373681,6.039136 -2.673081,2.677503 -4.378455,5.007673 -5.933068,8.106813 -1.720474,3.42979 -2.662014,6.50775 -3.20457,10.4761 -0.254361,1.86036 -0.25441,5.91507 -9.9e-5,7.77606 0.84727,6.20013 3.047707,11.35572 6.914347,16.20014 0.943574,1.18218 3.740557,3.93867 4.927028,4.8557 4.810373,3.71796 10.051678,5.89235 16.016798,6.64465 1.66241,0.20966 6.71807,0.14887 8.22711,-0.099 z M 73.199569,110.47863 c 1.733414,-5.89512 4.995178,-11.277662 9.464623,-15.618463 5.052717,-4.907287 11.03599,-8.06162 18.023428,-9.501816 l 1.51202,-0.311645 -15.093144,-0.0066 -15.093127,-0.0066 0.0086,15.255124 0.0086,15.25513 0.363744,-1.78202 c 0.200064,-0.9801 0.562339,-2.45742 0.805064,-3.28292 z M 143.402,100.20744 V 85.033301 l -15.09313,0.0147 c -8.30123,0.0082 -14.97164,0.03548 -14.82313,0.06085 11.15951,1.907269 20.54094,8.585404 25.91142,18.444949 1.74564,3.20477 3.09405,6.99672 3.69706,10.39665 0.13958,0.787 0.26594,1.43097 0.28077,1.43101 0.0149,6e-5 0.027,-6.82826 0.027,-15.17405 z M 127.23226,46.014438 107.72887,12.233626 c 0,0 -9.217033,15.956072 -19.896712,34.459337 -10.679668,18.503262 -19.731664,34.1283 -19.731664,34.1283 h 39.603996 39.60402 c 0,0 -9.3494,-16.227376 -20.07625,-34.806825 z"
       id="path122"
       sodipodi:nodetypes="ssssssssccssssccssssssssssssccssssscccsssscccssscssscssscssssccccsscccccccccssscccccsscccsccssssssssssssscccsscccccsccccccsssccscscccs" /></g><metadata
     id="metadata274"><rdf:RDF><cc:Work
         rdf:about=""><dc:title>CrowningGlorySVG_PhiloStone01</dc:title></cc:Work></rdf:RDF></metadata></svg>
