<?xml version="1.0" standalone="no"?>
<!DOCTYPE svg PUBLIC "-//W3C//DTD SVG 20010904//EN"
 "http://www.w3.org/TR/2001/REC-SVG-20010904/DTD/svg10.dtd">
<svg version="1.0" xmlns="http://www.w3.org/2000/svg"
 width="1122.000000pt" height="1082.000000pt" viewBox="0 0 1122.000000 1082.000000"
 preserveAspectRatio="xMidYMid meet">
<metadata>
Created by potrace 1.16, written by Peter Selinger 2001-2019
</metadata>
<g transform="translate(0.000000,1082.000000) scale(0.100000,-0.100000)"
fill="#000000" stroke="none">
<path d="M5299 10366 c-2 -2 -95 -11 -206 -21 -111 -9 -216 -20 -233 -25 -17
-5 -63 -12 -103 -16 -40 -4 -83 -11 -97 -16 -14 -5 -65 -16 -115 -24 -146 -23
-259 -51 -458 -116 -49 -15 -93 -28 -99 -28 -5 0 -24 -6 -41 -14 -18 -8 -66
-25 -107 -39 -105 -35 -146 -51 -161 -64 -8 -6 -25 -14 -39 -18 -123 -36 -597
-286 -779 -410 -24 -17 -64 -43 -90 -59 -25 -16 -75 -52 -111 -80 -36 -28 -83
-65 -105 -81 -21 -16 -46 -35 -55 -42 -8 -8 -67 -57 -130 -110 -117 -97 -442
-417 -515 -507 -22 -27 -61 -72 -88 -101 -26 -29 -47 -57 -47 -63 0 -6 -6 -15
-13 -19 -10 -7 -41 -44 -89 -108 -4 -5 -25 -32 -45 -60 -35 -46 -103 -144
-128 -184 -5 -9 -22 -35 -37 -59 -16 -24 -28 -46 -28 -50 0 -4 -13 -23 -30
-42 -16 -19 -29 -40 -30 -46 0 -6 -25 -56 -56 -110 -83 -145 -233 -462 -283
-596 -11 -32 -30 -82 -41 -111 -11 -29 -20 -57 -20 -62 0 -5 -9 -32 -19 -60
-29 -74 -67 -204 -91 -310 -7 -27 -20 -79 -30 -115 -10 -36 -23 -94 -29 -130
-6 -36 -20 -117 -31 -180 -10 -63 -26 -185 -35 -270 -8 -85 -20 -198 -26 -250
-28 -247 17 -916 81 -1202 11 -48 20 -95 20 -106 0 -10 9 -48 19 -83 10 -35
24 -91 31 -124 6 -33 18 -78 26 -100 8 -23 14 -48 14 -57 0 -9 7 -29 15 -44 8
-16 15 -40 15 -52 0 -13 7 -36 15 -50 8 -15 21 -45 29 -67 65 -187 94 -263
132 -342 24 -50 44 -94 44 -97 0 -15 159 -322 208 -401 17 -27 41 -68 53 -90
12 -22 51 -84 88 -138 36 -54 71 -108 78 -120 7 -12 30 -44 53 -72 22 -27 54
-71 71 -97 17 -27 35 -48 40 -48 5 0 9 -5 9 -11 0 -9 57 -78 211 -253 68 -77
336 -343 389 -386 30 -25 60 -50 65 -56 27 -29 370 -294 381 -294 3 0 25 -15
49 -33 24 -17 80 -54 125 -82 44 -27 107 -67 140 -87 61 -39 396 -211 515
-264 79 -35 285 -114 300 -114 6 -1 28 -9 50 -20 22 -11 48 -19 57 -20 10 0
37 -9 60 -19 42 -20 161 -51 408 -110 139 -33 399 -75 560 -91 58 -6 148 -15
200 -20 123 -12 444 -12 585 0 224 19 332 30 390 40 33 5 105 17 160 25 115
19 280 55 445 97 63 17 132 34 153 39 21 5 45 14 55 19 17 10 58 25 167 61 33
11 69 24 80 29 11 5 45 19 75 30 30 12 73 30 96 41 23 10 44 19 48 19 27 0
413 202 566 295 30 19 71 43 90 55 19 11 55 36 80 55 25 18 48 34 53 34 17 2
360 267 447 346 19 18 70 65 114 104 99 91 348 346 361 371 6 11 32 41 58 69
26 27 47 53 47 57 0 4 14 23 31 40 17 18 36 41 43 52 6 11 41 59 78 108 37 49
79 105 93 124 31 41 155 238 155 246 0 3 10 18 22 35 36 49 157 278 216 411
12 25 26 49 32 53 5 3 10 16 10 27 0 12 6 29 14 37 7 9 30 63 51 121 20 58 43
123 51 145 8 22 19 49 24 60 15 30 69 201 80 254 6 25 21 82 35 126 13 44 29
103 35 130 37 165 49 234 64 350 10 72 22 157 27 190 42 244 54 649 27 910
-46 446 -89 707 -149 900 -10 33 -27 94 -38 135 -11 41 -27 95 -36 120 -10 25
-23 65 -30 90 -7 25 -23 70 -34 100 -12 30 -37 96 -56 145 -31 84 -73 180 -94
215 -5 8 -39 76 -76 150 -105 213 -140 276 -189 349 -25 38 -46 73 -46 78 0 5
-13 24 -30 43 -16 19 -30 40 -30 45 -1 6 -17 30 -35 55 -19 25 -50 68 -69 95
-19 28 -54 73 -78 102 -24 28 -57 71 -75 95 -18 24 -45 57 -61 74 -16 17 -39
44 -51 60 -65 83 -303 327 -414 425 -21 19 -62 55 -90 81 -29 25 -77 66 -107
89 -30 24 -58 47 -61 52 -3 5 -18 16 -32 25 -14 9 -58 42 -99 73 -40 31 -93
69 -118 85 -25 16 -49 32 -55 36 -5 4 -31 24 -58 43 -26 19 -53 35 -60 35 -7
0 -18 5 -24 11 -6 6 -20 16 -31 23 -11 6 -37 21 -58 34 -22 13 -57 34 -79 47
-22 13 -87 47 -145 76 -58 28 -112 58 -120 65 -8 7 -33 19 -55 27 -79 30 -220
90 -231 98 -15 12 -247 97 -327 120 -37 10 -86 26 -110 35 -136 49 -461 122
-647 145 -41 5 -88 14 -105 19 -83 26 -844 67 -866 46z m99 -238 c17 -17 16
-182 0 -196 -7 -5 -110 -17 -228 -26 -118 -9 -228 -21 -245 -26 -16 -5 -64
-14 -105 -19 -128 -17 -214 -31 -230 -37 -17 -7 -116 -29 -197 -45 -29 -5 -65
-16 -80 -24 -16 -8 -35 -15 -43 -15 -8 0 -37 -9 -65 -20 -27 -10 -77 -28 -110
-38 -101 -33 -207 -72 -262 -98 -28 -13 -57 -24 -63 -24 -6 0 -28 -9 -48 -20
-20 -11 -95 -49 -167 -84 -188 -92 -261 -134 -458 -263 -61 -40 -114 -73 -119
-73 -5 0 -11 -7 -14 -15 -3 -8 -27 -28 -52 -45 -88 -56 -117 -77 -154 -111
-20 -19 -55 -50 -79 -69 -97 -80 -132 -112 -294 -276 -172 -174 -272 -282
-289 -313 -5 -9 -37 -50 -71 -91 -34 -41 -72 -93 -85 -115 -14 -22 -41 -62
-61 -89 -21 -27 -43 -61 -50 -75 -7 -14 -25 -42 -39 -61 -110 -146 -313 -556
-410 -825 -12 -33 -30 -80 -39 -105 -42 -104 -131 -439 -146 -545 -4 -27 -11
-57 -16 -66 -4 -9 -13 -56 -19 -105 -6 -49 -13 -102 -15 -119 -12 -81 -27
-240 -31 -330 -6 -128 -10 -142 -36 -156 -27 -14 -167 -12 -185 3 -16 13 -17
271 -2 358 5 30 15 105 23 165 8 61 21 142 30 180 8 39 27 133 42 210 14 77
32 152 40 167 8 15 14 38 14 50 0 22 28 115 50 163 4 11 11 29 13 40 8 32 67
197 82 232 8 17 15 37 15 45 0 7 6 22 14 33 7 11 19 38 26 60 15 48 206 433
226 456 8 8 14 20 14 25 1 5 23 45 51 89 27 44 56 95 64 113 8 17 19 32 24 32
4 0 20 21 34 48 44 79 244 338 401 517 68 78 249 261 341 345 92 83 323 272
391 318 33 22 68 50 79 62 10 11 22 20 27 20 4 0 29 15 55 34 27 18 62 41 78
50 17 9 39 22 50 29 25 16 95 58 120 74 11 7 43 24 70 39 28 14 57 32 66 40 8
8 19 14 24 14 5 0 50 20 99 44 251 121 286 136 451 196 82 29 286 93 365 115
36 9 82 24 103 31 20 8 50 14 65 14 15 1 45 7 67 15 22 9 85 22 140 31 55 9
123 20 150 25 222 38 580 60 603 37z m602 -8 c74 -5 155 -14 180 -20 25 -5
105 -19 178 -30 73 -12 151 -28 173 -35 23 -8 52 -15 66 -15 13 0 33 -5 44
-10 10 -6 67 -23 126 -39 157 -41 252 -70 299 -92 23 -10 46 -19 52 -19 12 0
199 -72 257 -99 176 -82 361 -178 425 -219 14 -9 43 -26 65 -38 22 -11 54 -30
70 -40 17 -10 46 -28 64 -39 48 -29 154 -97 166 -107 36 -29 76 -58 114 -83
24 -17 57 -42 72 -56 15 -14 67 -57 115 -95 160 -127 414 -375 557 -544 40
-47 76 -88 82 -92 5 -3 28 -32 50 -63 22 -31 62 -84 89 -118 45 -56 108 -148
161 -231 60 -97 143 -233 166 -274 14 -26 35 -64 47 -85 12 -21 22 -44 22 -51
0 -7 9 -21 20 -31 11 -10 20 -24 20 -31 0 -8 13 -38 29 -67 16 -30 43 -90 61
-133 17 -44 38 -92 45 -109 25 -52 56 -137 86 -235 16 -52 36 -107 44 -122 8
-14 15 -37 15 -50 0 -12 6 -34 13 -48 15 -28 61 -230 118 -510 30 -153 59
-420 59 -552 0 -138 0 -138 -107 -138 -107 0 -109 2 -116 169 -8 186 -22 313
-58 507 -16 88 -29 169 -29 180 -1 10 -8 37 -16 59 -8 22 -19 58 -24 80 -30
132 -105 374 -132 428 -4 9 -18 43 -29 75 -25 69 -86 216 -107 257 -8 17 -19
38 -23 47 -131 266 -210 400 -398 674 -29 44 -68 95 -85 115 -17 20 -40 48
-51 63 -11 15 -25 32 -30 39 -6 6 -33 39 -60 72 -28 33 -68 78 -90 101 -22 22
-91 93 -153 157 -162 167 -477 432 -602 507 -14 8 -78 50 -142 93 -64 42 -121
77 -127 77 -5 0 -14 6 -18 13 -4 7 -19 18 -33 25 -14 7 -65 35 -115 62 -49 27
-97 53 -105 56 -36 16 -148 66 -185 83 -22 10 -60 27 -85 36 -25 9 -50 21 -56
26 -6 4 -37 17 -70 28 -32 10 -90 31 -129 45 -38 14 -77 26 -85 26 -8 0 -31 8
-50 19 -19 10 -54 22 -77 26 -24 4 -45 10 -48 15 -3 5 -24 11 -48 15 -23 4
-96 20 -162 35 -66 15 -158 33 -205 40 -47 7 -107 16 -135 22 -96 18 -171 26
-345 38 -96 7 -181 17 -187 22 -9 7 -13 40 -13 97 0 56 4 92 13 100 13 14 88
12 367 -9z m-270 -540 c141 -11 239 -25 305 -44 28 -8 88 -24 135 -36 122 -30
358 -120 450 -171 8 -4 53 -29 100 -55 94 -52 169 -102 308 -207 98 -74 370
-337 418 -406 16 -22 61 -82 99 -134 78 -103 75 -99 145 -218 27 -48 50 -91
50 -96 0 -6 8 -21 18 -34 10 -13 24 -40 31 -59 7 -19 28 -67 47 -106 38 -80
119 -318 130 -379 3 -22 10 -47 15 -56 11 -21 28 -124 39 -228 8 -82 19 -109
38 -97 24 15 42 339 32 596 -9 219 -32 428 -56 498 -8 23 -14 55 -14 71 0 15
-4 41 -9 57 -5 16 -19 66 -32 112 -26 97 -19 117 29 78 16 -14 34 -26 40 -26
16 0 209 -207 246 -263 83 -129 166 -295 166 -333 0 -8 7 -25 15 -38 16 -24
25 -60 53 -216 20 -110 22 -404 4 -510 -6 -36 -16 -96 -22 -135 -6 -38 -20
-99 -30 -135 -10 -36 -26 -92 -35 -125 -9 -33 -28 -89 -42 -125 -14 -36 -38
-100 -54 -143 -16 -43 -35 -92 -43 -110 -23 -52 -30 -81 -16 -72 6 4 16 17 21
28 5 12 23 45 39 72 16 28 33 59 38 70 15 31 72 154 103 221 16 34 29 67 29
73 0 7 9 29 19 49 32 60 83 207 106 302 4 14 12 39 20 55 20 46 59 212 80 338
9 57 40 51 111 -23 31 -33 62 -68 68 -79 6 -10 26 -40 43 -66 18 -25 33 -49
33 -52 0 -4 12 -35 26 -70 31 -78 54 -225 54 -342 0 -88 -21 -268 -39 -331 -5
-19 -17 -64 -26 -100 -9 -36 -25 -84 -36 -108 -10 -23 -19 -47 -19 -53 0 -6
-11 -34 -24 -62 -13 -29 -43 -95 -66 -147 -24 -52 -54 -111 -67 -130 -12 -19
-23 -38 -23 -42 0 -4 -31 -57 -70 -118 -38 -61 -70 -113 -70 -115 0 -2 -15
-25 -32 -50 -18 -26 -37 -54 -43 -64 -5 -9 -22 -32 -37 -52 -16 -20 -28 -41
-28 -47 0 -6 -6 -15 -14 -19 -7 -4 -51 -60 -98 -123 -47 -63 -111 -144 -142
-180 -61 -71 -75 -105 -28 -71 61 45 211 197 430 436 43 46 186 217 202 242 8
11 36 49 63 82 26 34 47 65 47 70 0 5 7 15 16 22 9 7 20 22 25 34 5 11 31 54
58 95 69 106 212 394 226 455 3 17 13 40 21 53 21 32 39 15 54 -51 6 -29 18
-70 25 -92 16 -48 35 -216 35 -300 -1 -173 -49 -413 -114 -559 -14 -32 -26
-64 -26 -71 0 -7 -9 -24 -20 -38 -11 -14 -20 -32 -20 -40 0 -8 -7 -20 -15 -27
-9 -7 -23 -29 -32 -49 -10 -20 -49 -78 -88 -130 -38 -52 -80 -108 -93 -125
-42 -58 -250 -263 -334 -330 -46 -37 -100 -81 -122 -99 -21 -18 -43 -34 -48
-36 -6 -2 -39 -24 -74 -50 -34 -25 -86 -62 -114 -81 -91 -63 -87 -59 -69 -60
9 0 22 7 29 15 7 8 19 15 27 15 7 0 26 8 41 19 36 24 86 54 147 87 44 23 98
61 255 176 24 18 49 35 54 37 6 2 44 31 86 63 41 33 90 72 109 86 96 74 357
331 390 383 9 14 31 43 49 63 28 33 35 36 49 24 14 -11 15 -30 9 -137 -13
-240 -79 -440 -218 -656 -42 -65 -147 -186 -212 -244 -34 -29 -77 -68 -96 -85
-19 -17 -42 -35 -51 -41 -9 -5 -41 -26 -71 -46 -148 -99 -416 -229 -558 -272
-30 -9 -77 -23 -105 -32 -53 -17 -90 -27 -170 -45 -27 -6 -64 -18 -82 -26 -17
-8 -50 -14 -72 -14 -23 0 -58 -7 -78 -15 -19 -8 -50 -15 -67 -15 -17 0 -38 -5
-46 -10 -10 -7 9 -10 64 -10 78 0 132 7 271 36 39 8 85 14 102 14 18 0 50 7
70 15 40 15 94 29 178 47 28 5 55 13 60 18 6 4 26 11 45 15 75 15 296 96 425
156 33 15 71 32 85 38 14 6 32 15 40 20 8 5 33 17 55 27 22 11 68 36 103 57
78 46 100 46 75 1 -160 -282 -446 -557 -728 -701 -102 -53 -274 -102 -420
-122 -89 -12 -240 4 -380 40 -78 20 -108 23 -103 8 3 -8 15 -16 29 -17 13 -2
31 -10 39 -17 8 -8 33 -18 55 -24 22 -5 74 -19 115 -30 116 -32 266 -44 430
-37 140 7 178 12 285 37 70 16 87 16 93 1 5 -16 -113 -134 -156 -156 -16 -8
-56 -33 -88 -54 -63 -41 -190 -91 -289 -114 -39 -8 -122 -13 -235 -12 -187 1
-301 16 -400 54 -90 35 -90 35 -90 9 0 -16 22 -45 68 -89 94 -93 223 -157 342
-171 46 -5 86 -11 88 -13 9 -9 -20 -46 -36 -46 -9 0 -48 -11 -87 -25 -205 -74
-442 -79 -560 -13 -98 56 -112 93 -118 313 -6 183 -18 242 -68 320 -61 94 -73
127 -73 204 0 71 1 74 35 105 28 26 47 34 93 40 122 14 195 85 222 216 10 51
7 177 -6 235 -10 45 -74 178 -104 215 -52 65 -46 170 10 201 34 18 151 143
201 214 42 61 113 204 113 227 0 7 7 25 14 40 8 15 24 78 36 139 44 228 -2
442 -131 605 -29 36 -49 72 -49 86 0 14 20 63 45 109 198 373 270 656 270
1064 0 204 -31 458 -70 583 -6 18 -4 22 13 22 21 0 63 -49 88 -103 9 -17 26
-50 39 -72 13 -22 24 -47 24 -55 1 -9 10 -33 20 -54 11 -21 23 -52 27 -69 5
-26 8 -28 16 -13 7 12 5 32 -6 63 -9 26 -16 58 -16 72 0 14 -9 48 -19 76 -10
27 -27 75 -37 105 -9 30 -23 64 -31 75 -7 11 -13 26 -13 33 0 32 -129 292
-189 380 -20 30 -40 61 -46 70 -5 9 -30 43 -55 77 -25 33 -53 72 -62 86 -24
38 -293 308 -361 362 -56 46 -175 130 -246 175 -20 12 -79 44 -131 70 -52 27
-106 55 -120 64 -14 9 -47 24 -75 33 -27 9 -54 20 -60 24 -9 7 -177 61 -295
96 -177 52 -594 89 -755 66 -44 -7 -142 -21 -219 -31 -76 -11 -159 -27 -185
-35 -25 -8 -100 -31 -166 -51 -66 -21 -124 -41 -130 -45 -5 -4 -37 -16 -69
-28 -32 -11 -66 -27 -76 -36 -9 -8 -21 -15 -27 -15 -15 0 -160 -79 -208 -112
-22 -16 -51 -36 -65 -45 -65 -42 -118 -79 -146 -102 -16 -14 -52 -44 -79 -66
-70 -57 -211 -198 -281 -280 -63 -74 -154 -192 -154 -200 0 -2 -13 -24 -30
-48 -16 -25 -30 -50 -30 -55 0 -6 -6 -15 -13 -19 -11 -7 -28 -36 -80 -137 -5
-12 -14 -28 -19 -36 -12 -22 -23 -48 -53 -125 -14 -38 -32 -83 -39 -100 -47
-109 -93 -292 -78 -307 8 -8 13 -3 17 18 7 30 18 58 34 84 5 8 24 46 43 84 18
38 48 86 66 105 29 31 35 33 43 19 6 -10 4 -28 -6 -52 -8 -19 -15 -50 -15 -68
0 -18 -7 -60 -15 -93 -27 -112 -39 -363 -27 -555 10 -162 18 -211 58 -375 32
-129 85 -284 115 -335 5 -8 14 -26 20 -40 25 -58 51 -109 84 -168 19 -34 35
-74 35 -88 0 -16 -21 -52 -55 -96 -30 -38 -55 -75 -55 -81 0 -6 -6 -18 -14
-26 -26 -31 -63 -186 -73 -309 -6 -82 35 -300 71 -377 8 -16 22 -50 33 -75 36
-88 129 -213 227 -306 93 -89 96 -93 96 -135 0 -34 -10 -61 -41 -114 -70 -119
-79 -135 -79 -148 -1 -7 -9 -30 -20 -52 -15 -31 -19 -62 -20 -142 0 -91 3
-108 29 -166 46 -101 99 -140 214 -157 32 -5 65 -14 73 -21 46 -38 70 -164 39
-205 -8 -10 -15 -25 -15 -32 0 -7 -17 -39 -39 -70 -35 -52 -44 -78 -71 -197
-5 -22 -9 -108 -10 -190 l0 -150 -44 -50 c-71 -81 -155 -110 -311 -109 -109 1
-209 19 -323 59 -41 14 -80 25 -88 25 -17 0 -38 37 -24 45 5 3 43 10 83 14 56
6 95 19 169 55 53 26 112 62 131 79 43 39 107 115 107 128 0 14 -29 11 -89
-11 -85 -30 -212 -50 -351 -56 -173 -8 -311 12 -445 63 -62 24 -249 136 -283
170 -7 7 -18 13 -23 13 -5 0 -9 6 -9 13 0 7 -14 23 -30 35 -28 21 -42 62 -20
62 5 0 35 -7 67 -16 205 -55 533 -57 730 -3 43 11 96 26 118 31 22 6 47 17 55
24 8 6 26 14 39 16 14 1 26 9 29 16 5 16 -42 16 -71 0 -75 -40 -405 -56 -549
-25 -125 26 -310 103 -408 169 -30 21 -80 55 -110 75 -61 41 -306 281 -335
328 -11 17 -33 48 -51 70 -56 72 -114 162 -114 179 0 26 18 20 115 -41 24 -15
224 -113 231 -113 3 0 39 -16 80 -35 41 -19 80 -35 87 -35 7 0 17 -4 23 -9 5
-5 61 -25 124 -46 63 -20 133 -43 155 -50 22 -8 74 -21 115 -30 41 -9 95 -24
120 -32 25 -9 68 -19 95 -23 28 -5 93 -16 145 -25 116 -21 302 -31 280 -16 -8
6 -29 11 -46 11 -16 0 -34 4 -40 10 -5 5 -39 13 -74 16 -36 4 -78 12 -95 19
-16 7 -75 23 -129 36 -55 12 -111 28 -125 36 -14 7 -34 13 -43 13 -38 0 -219
75 -418 173 -101 50 -281 162 -288 179 -2 4 -24 22 -48 39 -49 33 -143 126
-214 209 -63 75 -124 171 -172 270 -22 47 -47 97 -54 112 -8 14 -14 37 -14 50
0 13 -7 33 -15 45 -26 37 -55 299 -46 421 2 21 29 13 50 -15 88 -116 363 -393
441 -444 14 -9 42 -32 62 -50 69 -64 400 -294 517 -359 44 -25 81 -48 81 -52
0 -5 11 -8 23 -8 13 0 32 -9 42 -20 20 -22 35 -26 35 -10 0 6 -10 15 -22 21
-48 22 -78 40 -78 49 0 5 -9 12 -20 15 -11 3 -26 12 -32 18 -7 7 -36 29 -63
49 -28 20 -67 50 -88 65 -142 105 -339 285 -417 378 -13 17 -48 58 -77 92 -29
34 -53 66 -53 71 0 4 -13 23 -30 42 -16 19 -29 38 -30 41 0 4 -17 36 -39 71
-89 147 -153 304 -190 470 -20 88 -33 282 -26 388 7 111 34 258 58 325 21 56
48 54 66 -5 30 -100 194 -431 237 -481 8 -8 14 -20 14 -26 0 -6 7 -17 16 -24
9 -7 20 -22 25 -34 13 -28 199 -281 222 -300 7 -6 17 -18 22 -27 19 -30 213
-242 337 -368 130 -133 215 -207 224 -197 6 6 -5 21 -53 77 -68 79 -133 161
-133 168 0 5 -13 22 -30 38 -16 16 -30 33 -30 37 0 5 -21 36 -46 69 -54 69
-114 157 -114 167 -1 3 -14 22 -30 41 -17 19 -30 38 -30 43 0 5 -23 43 -50 83
-28 40 -50 75 -50 77 0 3 -20 41 -45 86 -25 45 -45 86 -45 93 0 6 -6 19 -13
27 -15 17 -80 169 -91 211 -4 14 -15 45 -25 70 -29 71 -60 178 -78 270 -21
106 -24 411 -4 480 7 25 16 61 20 80 9 38 21 63 92 192 34 61 162 193 178 183
6 -3 13 -22 16 -43 3 -20 10 -44 15 -53 4 -9 11 -38 15 -65 4 -27 15 -76 25
-109 53 -171 114 -362 121 -375 5 -8 29 -66 54 -128 56 -141 211 -456 236
-478 11 -10 19 -15 19 -12 0 13 -31 77 -40 83 -5 3 -10 16 -10 29 0 12 -11 44
-23 72 -13 27 -32 74 -42 104 -9 30 -26 74 -36 98 -11 23 -19 53 -19 65 0 13
-4 27 -9 33 -12 13 -42 126 -52 199 -4 33 -12 72 -17 86 -6 14 -16 86 -22 160
-15 162 -1 451 25 511 8 21 15 48 15 62 0 13 13 57 30 97 16 41 30 79 30 86 0
28 103 211 166 293 86 114 259 282 286 278 10 -2 19 -5 20 -8 3 -9 -34 -164
-49 -210 -8 -25 -18 -72 -23 -105 -10 -76 -28 -193 -42 -270 -33 -191 -12
-820 27 -820 6 0 13 31 17 69 4 39 11 79 16 90 5 12 18 66 27 121 10 55 26
119 37 142 10 23 18 48 18 55 0 56 174 455 249 573 14 22 34 56 45 75 10 19
38 61 62 92 24 31 44 60 44 63 0 29 273 326 391 427 84 72 187 153 216 171 15
9 62 40 103 67 192 128 478 252 690 299 30 7 78 19 105 27 154 44 472 63 725
44z m-10 -750 c183 -49 264 -82 359 -146 24 -16 54 -36 67 -45 108 -72 271
-274 316 -392 10 -26 22 -55 28 -65 22 -39 49 -154 61 -259 22 -195 -15 -415
-97 -573 -76 -146 -92 -169 -214 -290 -238 -239 -607 -348 -925 -274 -231 54
-359 124 -523 287 -117 115 -221 280 -252 397 -6 25 -19 65 -28 90 -24 63 -24
436 0 490 8 19 18 53 22 74 9 47 89 218 110 236 9 7 16 16 16 21 0 27 177 216
240 257 14 9 29 22 33 29 4 7 12 13 17 13 5 0 28 13 52 28 50 34 179 88 224
95 17 3 41 10 52 16 53 28 350 36 442 11z m933 -1541 c45 -23 136 -136 171
-211 64 -141 80 -225 73 -403 -4 -106 -11 -165 -31 -240 -16 -61 -26 -127 -26
-169 0 -61 4 -77 35 -134 20 -35 41 -70 48 -78 33 -37 38 -47 39 -74 1 -17 -1
-32 -3 -33 -2 -2 -28 -20 -57 -41 -29 -21 -64 -53 -79 -72 -14 -19 -29 -34
-33 -34 -12 0 -145 139 -200 210 -88 113 -79 161 43 214 52 22 69 36 82 62 17
36 12 58 -19 84 -23 18 -20 40 8 69 42 44 76 118 76 166 0 39 -4 46 -30 60
-36 19 -37 23 -5 85 40 80 28 142 -35 173 -23 12 -24 17 -25 102 -1 93 -24
189 -51 211 -13 11 -20 64 -8 64 3 0 15 -5 27 -11z m-2223 -12 c0 -7 -11 -36
-24 -64 -30 -62 -38 -102 -40 -206 -1 -76 -3 -82 -22 -85 -62 -9 -78 -103 -31
-186 27 -48 27 -66 3 -66 -7 0 -21 -9 -31 -20 -33 -37 -5 -133 60 -205 19 -21
35 -41 35 -45 0 -3 -11 -17 -25 -30 -51 -48 -26 -104 68 -151 71 -36 107 -65
107 -88 0 -35 -91 -155 -223 -294 -42 -44 -41 -44 -107 23 -19 20 -50 46 -67
59 -44 30 -49 58 -23 109 12 23 26 45 31 48 5 3 25 37 44 74 42 83 46 145 15
233 -11 31 -20 68 -20 81 0 14 -5 37 -11 53 -6 16 -11 98 -10 195 0 170 14
254 47 303 8 11 14 26 14 33 0 26 79 148 126 195 47 46 84 61 84 34z m730
-629 c76 -77 80 -105 18 -133 -39 -17 -42 -17 -54 -1 -6 9 -15 33 -19 53 -4
20 -22 64 -41 98 -18 34 -31 65 -27 68 11 12 64 -24 123 -85z m811 -1 c-17
-34 -33 -79 -36 -99 -7 -45 -31 -56 -75 -33 -39 20 -46 39 -29 73 17 32 94
109 134 134 26 16 30 16 33 2 2 -8 -10 -43 -27 -77z m-285 -145 c10 -6 44 -19
74 -28 55 -17 155 -81 197 -126 13 -13 41 -60 63 -103 49 -96 53 -144 14 -174
-15 -12 -33 -21 -41 -21 -8 0 -72 14 -141 32 -121 30 -136 32 -327 32 -203 0
-266 -8 -407 -51 -60 -18 -114 -9 -122 20 -29 107 51 253 189 346 38 26 138
64 215 82 47 11 262 4 286 -9z m119 -515 c107 -14 225 -38 325 -66 19 -5 46
-13 60 -16 40 -11 194 -76 210 -90 8 -6 36 -22 62 -34 91 -43 262 -213 283
-281 4 -14 15 -33 23 -43 13 -14 17 -41 17 -120 0 -100 -1 -103 -34 -149 -37
-51 -130 -122 -174 -133 -15 -4 -29 -10 -32 -14 -2 -4 -44 -20 -92 -36 -283
-91 -414 -137 -466 -166 -9 -5 -39 -16 -65 -25 -26 -9 -54 -22 -62 -28 -8 -7
-38 -22 -66 -34 -28 -12 -75 -37 -105 -57 -71 -46 -110 -58 -178 -53 -55 4
-76 13 -236 97 -33 17 -65 31 -71 31 -6 0 -17 7 -24 14 -6 8 -28 20 -48 27
-33 10 -85 32 -177 74 -16 7 -39 15 -50 18 -11 3 -65 21 -120 41 -55 20 -111
36 -125 36 -14 0 -42 9 -63 20 -20 11 -44 20 -52 20 -21 0 -165 76 -197 104
-15 14 -42 48 -59 76 -30 49 -32 58 -30 138 3 134 53 220 214 370 19 17 38 32
41 32 3 0 24 13 48 28 24 16 75 44 113 62 39 18 81 39 95 45 14 7 82 29 152
49 116 33 184 46 378 74 90 14 361 7 505 -11z m-1778 -152 c67 -28 123 -84
154 -153 16 -35 29 -76 29 -90 -1 -25 -27 -112 -41 -137 -3 -5 -12 -45 -19
-88 -17 -105 -1 -192 57 -308 24 -47 43 -98 43 -113 0 -33 -19 -72 -66 -134
-47 -62 -61 -72 -104 -72 -38 0 -101 45 -181 130 -66 70 -167 242 -182 310 -3
14 -13 52 -22 85 -20 76 -23 214 -6 285 30 126 126 270 195 292 38 11 106 8
143 -7z m3167 -10 c51 -35 80 -70 114 -140 39 -80 52 -119 63 -185 11 -67 2
-190 -17 -236 -8 -18 -14 -44 -14 -56 0 -13 -9 -40 -20 -61 -11 -20 -20 -43
-20 -49 0 -21 -82 -150 -135 -215 -46 -55 -70 -76 -144 -125 -54 -37 -99 -19
-159 62 -65 89 -67 132 -12 246 70 146 75 262 19 424 -16 46 -29 94 -29 105 0
11 15 52 33 90 27 56 46 79 89 112 61 46 73 50 144 52 39 1 60 -5 88 -24z
m-6104 -460 c5 -3 11 -33 14 -68 22 -254 29 -324 41 -412 31 -210 50 -320 70
-390 7 -27 21 -79 29 -115 30 -124 47 -185 62 -217 8 -17 14 -44 14 -60 0 -16
7 -38 15 -50 9 -12 24 -48 34 -80 10 -32 31 -84 45 -117 14 -32 26 -64 26 -70
0 -6 15 -42 34 -81 18 -38 49 -104 67 -145 18 -41 39 -82 46 -91 7 -8 13 -23
13 -32 0 -9 5 -19 10 -22 6 -4 24 -32 40 -63 47 -90 92 -166 134 -229 21 -32
60 -89 85 -128 45 -69 147 -207 203 -275 127 -155 184 -220 282 -320 62 -63
146 -144 187 -180 40 -36 94 -83 119 -106 25 -22 52 -45 60 -52 8 -6 31 -24
50 -40 149 -122 420 -309 500 -345 8 -4 35 -21 60 -37 25 -16 92 -53 150 -82
58 -28 111 -58 118 -65 7 -7 19 -13 26 -13 7 0 53 -18 102 -41 161 -74 179
-81 310 -123 39 -13 82 -30 95 -40 13 -9 33 -16 44 -16 11 0 56 -11 98 -25 78
-26 127 -38 224 -56 29 -5 65 -14 80 -20 15 -6 55 -15 88 -19 33 -5 112 -18
175 -30 63 -11 205 -27 316 -35 111 -8 213 -20 228 -26 25 -12 26 -15 26 -99
0 -117 -7 -124 -127 -117 -125 8 -367 33 -438 46 -33 6 -134 24 -225 40 -168
30 -247 49 -355 81 -33 10 -87 26 -119 35 -33 10 -71 24 -85 31 -14 8 -33 14
-41 14 -8 0 -40 9 -70 21 -30 11 -68 25 -85 30 -16 6 -37 14 -47 19 -9 5 -58
25 -110 45 -100 39 -398 185 -469 231 -24 16 -60 38 -80 49 -81 45 -103 58
-171 103 -38 26 -78 52 -87 57 -9 6 -23 16 -31 23 -8 7 -62 47 -120 89 -164
120 -342 274 -505 438 -180 179 -257 265 -364 405 -44 58 -97 127 -118 154
-21 27 -59 81 -85 120 -26 39 -53 78 -60 86 -7 8 -17 22 -23 31 -10 16 -80
137 -121 207 -19 33 -79 147 -132 250 -11 20 -29 60 -41 87 -12 28 -27 58 -32
68 -5 9 -19 43 -30 75 -12 31 -25 61 -30 66 -5 6 -9 16 -9 24 0 8 -8 33 -19
56 -22 50 -29 70 -91 261 -69 214 -90 286 -90 306 0 10 -7 44 -15 76 -23 93
-56 280 -66 382 -5 51 -14 102 -20 112 -10 20 -30 384 -22 406 7 19 185 25
213 8z m9058 -7 c16 -21 -24 -544 -48 -623 -5 -16 -16 -70 -25 -120 -26 -155
-75 -369 -105 -455 -18 -52 -29 -88 -52 -160 -27 -85 -60 -173 -70 -185 -4 -5
-8 -18 -8 -28 0 -10 -7 -31 -15 -45 -8 -15 -28 -61 -46 -102 -17 -41 -38 -91
-46 -110 -30 -72 -161 -322 -198 -380 -12 -19 -49 -78 -81 -130 -32 -52 -70
-111 -84 -131 -14 -20 -40 -58 -59 -85 -19 -27 -52 -70 -73 -95 -21 -26 -38
-50 -38 -54 0 -6 -81 -108 -150 -190 -55 -65 -276 -300 -285 -304 -5 -2 -54
-47 -107 -100 -54 -52 -104 -99 -113 -103 -8 -5 -29 -22 -47 -39 -82 -76 -293
-232 -468 -346 -47 -30 -97 -64 -112 -74 -15 -10 -29 -19 -32 -19 -2 0 -38
-20 -79 -44 -93 -55 -353 -187 -427 -216 -97 -39 -104 -42 -145 -60 -64 -29
-95 -41 -175 -66 -41 -13 -82 -28 -91 -33 -9 -5 -47 -17 -85 -26 -38 -9 -94
-24 -124 -34 -111 -37 -268 -71 -595 -126 -87 -15 -269 -33 -427 -42 -116 -7
-119 -3 -116 115 l3 97 51 11 c28 6 117 14 198 18 183 10 391 40 621 92 248
55 345 84 520 151 50 19 101 38 115 42 14 5 82 34 152 65 70 31 138 61 150 66
13 6 30 14 38 18 23 14 59 32 140 74 41 21 92 49 112 61 196 117 438 280 451
302 4 8 12 15 17 15 10 0 69 47 226 180 135 114 419 407 514 530 14 18 34 42
46 54 59 60 268 366 367 536 101 174 297 584 297 621 0 6 9 27 19 47 24 48 45
110 86 254 18 64 35 120 38 125 3 5 13 43 23 84 9 41 23 101 30 134 45 186 93
569 94 735 0 100 11 110 119 110 59 0 92 -4 99 -12z m-5425 -512 c23 -7 67
-21 97 -30 30 -10 73 -25 95 -35 22 -10 60 -26 85 -34 25 -8 86 -36 136 -61
51 -25 95 -46 98 -46 17 0 146 -92 170 -121 60 -71 57 -32 63 -909 4 -782 4
-806 -15 -850 -11 -25 -31 -56 -46 -69 -14 -14 -26 -28 -26 -31 0 -7 -48 -63
-115 -135 -38 -40 -93 -75 -121 -75 -36 0 -95 32 -179 96 -177 136 -333 329
-448 554 -49 98 -120 271 -136 337 -6 21 -19 64 -30 95 -29 84 -80 343 -92
471 -14 139 -5 416 16 522 18 96 60 218 89 262 22 33 64 63 106 75 37 10 204
0 253 -16z m1905 -9 c42 -27 81 -86 102 -152 7 -22 19 -59 27 -83 28 -80 47
-243 46 -392 0 -143 -24 -375 -42 -408 -5 -9 -12 -39 -16 -67 -16 -109 -90
-350 -135 -439 -17 -32 -30 -63 -30 -67 0 -33 -167 -337 -220 -401 -136 -164
-284 -308 -316 -308 -7 0 -17 -6 -21 -13 -15 -25 -80 -57 -114 -57 -38 0 -65
15 -122 69 -48 45 -122 141 -132 170 -3 11 -10 21 -15 21 -5 0 -19 21 -32 48
l-23 47 0 821 c0 795 1 822 20 857 10 20 34 44 52 54 18 10 33 21 33 25 0 16
312 178 344 178 8 0 18 5 21 10 3 6 14 10 23 10 10 0 35 9 55 19 46 24 219 78
267 84 19 3 70 4 112 3 64 -2 84 -7 116 -29z m-2538 -417 c76 -41 29 -371 -57
-404 -56 -22 -93 48 -93 175 0 105 20 159 78 210 36 32 44 34 72 19z m2925 -2
c61 -28 112 -149 102 -241 -15 -121 -26 -149 -68 -162 -30 -10 -56 12 -85 72
-26 54 -28 68 -28 181 -1 118 0 125 23 143 28 22 24 22 56 7z m-2784 -987 c13
-10 30 -36 38 -57 7 -22 26 -67 42 -101 16 -34 29 -65 29 -68 0 -3 23 -54 51
-112 57 -118 68 -173 69 -326 0 -108 -14 -150 -52 -161 -83 -22 -117 14 -205
214 -60 136 -74 204 -72 348 2 142 16 232 42 262 21 25 28 25 58 1z m2647 2
c17 -15 24 -42 37 -155 10 -76 15 -155 12 -175 -11 -82 -39 -195 -58 -241 -11
-26 -27 -66 -35 -90 -18 -52 -66 -124 -101 -152 -45 -35 -98 -25 -132 26 -23
33 -24 39 -17 156 6 110 33 232 55 248 3 3 26 50 50 105 24 55 54 123 66 150
13 28 29 65 35 83 11 29 43 62 61 62 4 0 16 -8 27 -17z m-1333 -801 c6 -4 28
-30 49 -59 22 -29 45 -54 53 -57 7 -3 13 -11 13 -19 0 -7 11 -24 24 -36 14
-13 30 -36 37 -52 10 -27 9 -32 -12 -55 -33 -36 -63 -49 -139 -63 -58 -11 -72
-10 -132 9 -69 21 -128 61 -128 86 0 12 104 149 175 232 20 22 42 28 60 14z
m-982 -165 c7 -17 -24 -88 -46 -106 -35 -29 -3 -121 43 -121 33 0 41 -22 28
-82 -9 -43 -9 -68 1 -111 14 -63 30 -81 74 -81 32 -1 32 -1 37 -62 4 -43 13
-72 32 -102 24 -36 33 -41 70 -44 41 -3 44 -5 73 -61 17 -31 47 -75 67 -97 38
-39 151 -120 169 -120 6 0 9 -10 7 -22 -3 -26 -43 -37 -61 -19 -6 6 -18 11
-26 11 -9 0 -67 26 -129 57 -277 141 -433 344 -606 795 -47 120 -37 138 79
138 59 0 89 5 115 19 43 23 66 25 73 8z m1985 -9 c29 -18 49 -21 116 -21 44 1
88 -3 98 -8 23 -12 22 -44 -2 -94 -11 -22 -19 -45 -20 -51 0 -6 -12 -38 -26
-70 -14 -33 -31 -72 -38 -89 -21 -49 -35 -79 -45 -95 -5 -8 -14 -26 -20 -40
-20 -45 -75 -136 -113 -186 -78 -105 -288 -284 -333 -284 -7 0 -23 -8 -36 -19
-29 -22 -135 -63 -169 -65 -18 -1 -26 5 -27 19 -2 15 14 30 60 59 74 47 149
123 172 174 28 64 31 67 78 72 65 7 90 42 97 135 5 66 6 70 30 72 14 0 32 1
40 2 9 1 24 15 34 32 15 26 18 48 15 132 -4 95 -3 102 16 105 11 2 30 13 43
25 31 29 29 75 -8 123 -28 37 -38 73 -23 87 11 11 24 8 61 -15z"/>
<path d="M5384 8680 c-39 -4 -85 -15 -102 -24 -17 -9 -38 -16 -47 -16 -28 0
-202 -87 -208 -104 -4 -9 -12 -16 -19 -16 -19 -1 -139 -116 -192 -185 -52 -66
-86 -132 -128 -250 -24 -68 -30 -100 -34 -215 -8 -185 9 -295 61 -415 8 -17
18 -42 24 -57 5 -15 41 -68 79 -120 109 -146 290 -276 429 -309 26 -6 70 -18
98 -26 65 -20 216 -27 285 -15 164 29 341 99 408 161 18 17 37 31 41 31 10 0
124 123 163 176 26 34 78 135 113 218 44 105 59 341 30 473 -34 154 -105 297
-204 408 -40 46 -134 125 -147 125 -5 0 -14 8 -21 18 -13 21 -117 73 -196 98
-28 10 -57 21 -64 26 -14 11 -175 28 -248 26 -27 0 -82 -4 -121 -8z"/>
</g>
</svg>
